# xmcd
#
# Track frame offsets:
#	182
#	17210
#	40995
#	63837
#	81965
#	95480
#	116797
#	146360
#	170162
#	184045
#
# Disc length: 2600 seconds
#
# Revision: 1
# Processed by: cddbd v1.4PL0 Copyright (c) Steve Scherf et al.
# Submitted via: audiograbber 1.81.03
#
DISCID=870a260a
DTITLE=Flying W Wranglers - A Cowboy Christmas
DYEAR=2000
DGENRE=Christmas
TTITLE0=Flying W Christmas Round Up
TTITLE1=Shepherds On A Hill
TTITLE2=The Pot Bellied Stove
TTITLE3=The Christmas Bear
TTITLE4=Deck The Halls
TTITLE5=Do You Hear What I Hear?
TTITLE6=White Christmas/Jingle Bells/Winter Wonderland/Frosty The Snowman
TTITLE7=Christmas Waltz
TTITLE8=Sleigh Ride
TTITLE9=A Cowboy's Rocky Mountain Christmas
EXTD=
EXTT0=
EXTT1=
EXTT2=
EXTT3=
EXTT4=
EXTT5=
EXTT6=
EXTT7=
EXTT8=
EXTT9=
PLAYORDER=
